<?xml version="1.0" encoding="UTF-8" standalone="no"?>
<!-- Created with Inkscape (http://www.inkscape.org/) -->

<svg
   width="210mm"
   height="134mm"
   viewBox="0 0 210 134"
   version="1.1"
   id="svg5"
   sodipodi:docname="stars.svg"
   inkscape:version="1.1.1 (3bf5ae0d25, 2021-09-20)"
   xmlns:inkscape="http://www.inkscape.org/namespaces/inkscape"
   xmlns:sodipodi="http://sodipodi.sourceforge.net/DTD/sodipodi-0.dtd"
   xmlns="http://www.w3.org/2000/svg"
   xmlns:svg="http://www.w3.org/2000/svg">
  <sodipodi:namedview
     id="namedview7"
     pagecolor="#ffffff"
     bordercolor="#666666"
     borderopacity="1.0"
     inkscape:pageshadow="2"
     inkscape:pageopacity="0.0"
     inkscape:pagecheckerboard="0"
     inkscape:document-units="mm"
     showgrid="false"
     inkscape:zoom="0.74118967"
     inkscape:cx="397.33419"
     inkscape:cy="453.99985"
     inkscape:window-width="1920"
     inkscape:window-height="1017"
     inkscape:window-x="-8"
     inkscape:window-y="1072"
     inkscape:window-maximized="1"
     inkscape:current-layer="layer1"
     height="188mm" />
  <defs
     id="defs2" />
  <g
     inkscape:label="Layer 1"
     inkscape:groupmode="layer"
     id="layer1">
    <path
       id="path3040"
       style="stroke-width:0.269697;fill:#b3b3b3"
       d="m 180.89621,100.86934 -1.69292,5.1474 3.44606,4.26034 -5.60969,0.041 -3.14508,4.47081 -1.77404,-5.12203 -5.38983,-1.49723 4.51326,-3.20664 -0.18602,-5.396141 4.5634,3.140221 z m 11.58204,6.57898 -0.0143,2.65029 2.26034,1.51382 -2.62336,0.8059 -0.79744,2.53677 -1.60704,-2.15221 -2.7532,0.054 1.63017,-2.13605 -0.90413,-2.5034 2.61453,0.83207 z m -16.31978,9.63822 -3.31877,2.63378 0.37287,4.12436 -3.6282,-2.22389 -3.96037,1.6158 1.07643,-4.00822 -2.82052,-3.12574 4.29346,-0.25333 2.21719,-3.54761 1.5771,3.85165 z m -19.287,-0.71394 -6.64039,5.79762 1.19781,8.55148 -7.78108,-4.28659 -8.08022,3.73894 1.83143,-8.44688 -6.19167,-6.24069 8.91296,-0.93386 4.25356,-7.5959 3.67709,7.86972 z m -28.9305,-3.21274 -4.76443,5.17091 1.7249,6.70885 -6.58206,-2.76313 -6.09651,3.65201 0.69649,-6.87862 -5.49275,-4.45179 7.01251,-1.48809 2.7018,-6.40336 3.63748,5.95892 z m -30.414127,-6.06851 -5.980643,6.01295 1.756134,8.15047 -7.789976,-3.61616 -7.511433,4.12608 1.166174,-8.24786 -6.39846,-5.60042 8.510713,-1.48129 3.556969,-7.587328 4.093735,7.332368 z m -51.977,10.66425 -4.499499,2.83444 -0.433557,5.69452 -3.834836,-3.84332 -5.044919,1.30497 2.129439,-5.20973 -2.684374,-4.88799 5.150902,0.62352 3.385886,-4.32593 1.053993,5.5951 z m -22.945593,-16.73277 -5.160751,-1.419634 -4.200813,3.094264 -0.122641,-4.940198 -4.5067873,-2.708016 5.0849553,-1.63358 1.415464,-4.767903 3.265317,3.930588 5.381592,-0.238714 -3.066878,4.06282 z m 0,0 -0.656892,-0.74539 -1.010397,0.0982 0.533577,-0.831608 -0.409306,-0.89449 0.986663,0.231417 0.757432,-0.651062 0.07621,0.974635 0.877425,0.492111 -0.939561,0.370937 z m 160.60139,2.49879 -0.4303,-1.9104 -1.87913,-0.74188 1.75485,-0.984226 0.15244,-1.94927 1.51485,1.302126 1.97333,-0.462836 -0.81861,1.788976 1.06716,1.66323 -2.02079,-0.19648 z m 11.12714,-6.068503 -0.0833,-4.983093 -4.31239,-2.758964 4.89844,-1.616091 1.39374,-4.799825 3.11069,3.984294 5.17377,-0.207491 -2.97594,4.07852 1.80382,4.671587 -4.94991,-1.46363 z m 11.12711,-20.704325 -4.27981,-2.989781 -4.98533,1.69822 1.63189,-4.841338 -3.21868,-4.038449 5.28838,-0.0024 2.99607,-4.194117 1.6365,4.839896 5.07037,1.446342 -4.27698,2.993551 z m -7.78898,-28.557688 -2.10255,1.791742 0.34164,2.682738 -2.42029,-1.370854 -2.54545,1.141719 0.60673,-2.638975 -1.9148,-1.977118 2.79527,-0.260122 1.36203,-2.363645 1.12083,2.47821 z m -30.7946,-23.033167 -9.93629,1.357418 -4.47119,8.647353 -4.41186,-8.675534 -9.92678,-1.420434 7.20962,-6.719192 -1.6639,-9.5252302 8.86765,4.5228432 8.89843,-4.4664812 -1.72912,9.5144642 z m -40.78986,-12.306975 0.98105,1.91316 2.1937,0.30679 -1.58737,1.489189 0.37472,2.102765 -1.9621,-0.992791 -1.96211,0.992791 0.37473,-2.102765 -1.58738,-1.489189 2.1937,-0.30679 z m 55.26529,10.43025 4.14222,8.077788 9.26231,1.295331 -6.70227,6.28768 1.58219,8.878345 -8.28445,-4.191786 -8.28445,4.191786 1.58219,-8.878345 -6.70226,-6.28768 9.26229,-1.295331 z m 5.19204,31.69234 2.9403,6.269537 7.03318,1.223132 -5.28681,4.628743 0.9647,6.81565 -6.20773,-3.408817 -6.43696,2.989172 1.45023,-6.735505 -4.94296,-4.968243 7.10401,-0.753954 z m -4.07994,22.846151 -1.25052,7.202734 5.45609,5.074787 -7.504,1.081133 -3.32877,6.56232 -3.38721,-6.534555 -7.51337,-1.01905 5.41058,-5.119712 -1.31475,-7.192126 6.73114,3.3704 z m -22.62514,23.917067 0.90063,-3.599993 -2.57076,-2.754937 3.83574,-0.288084 1.92796,-3.204413 1.46999,3.421946 3.7623,0.774501 -2.92724,2.402962 0.39727,3.683078 -3.27911,-1.93683 z m 5.93446,-19.276442 -1.4085,-4.353623 -4.52489,-1.351434 3.8669,-2.634588 -0.0629,-4.55939 3.79838,2.725359 4.48608,-1.466427 -1.51939,4.318956 2.83537,3.653088 -4.73741,-0.0561 z m 1.48362,-17.134612 -4.28267,-2.459723 -4.53326,2.000983 1.10722,-4.680156 -3.37818,-3.531095 4.96697,-0.432774 2.44544,-4.183316 1.96253,4.412686 4.88954,0.945661 -3.75406,3.159966 z m -4.07995,-24.987977 -0.34416,2.542627 1.98119,1.71432 -2.61892,0.470689 -1.08183,2.3432 -1.27441,-2.251726 -2.6498,-0.266142 1.83129,-1.862333 -0.55584,-2.507686 2.40621,1.100743 z m -23.73784,-2.141829 3.50248,4.152056 5.53947,-0.42301 -3.02064,4.488984 2.12981,4.939731 -5.36935,-1.377712 -4.22318,3.475935 -0.2978,-5.340456 -4.73987,-2.791487 5.1853,-1.922872 z m 9.6435,20.347355 1.41136,3.823568 4.07282,1.048668 -3.34223,2.47341 0.2223,4.052035 -3.47697,-2.294919 -3.93543,1.455629 1.19335,-3.891745 -2.65454,-3.15241 4.21449,-0.110313 z m 6.67627,19.276438 -1.66653,2.642037 1.31661,2.819088 -3.12578,-0.708991 -2.37891,2.076281 -0.26531,-3.080216 -2.78685,-1.535877 2.96181,-1.194687 0.65653,-3.025505 2.09581,2.341862 z m -21.14153,29.628617 -0.19228,-5.19566 -4.55613,-2.793056 5.07481,-1.781554 1.35211,-5.033467 3.3287,4.094606 5.39178,-0.317801 -3.01757,4.312162 1.98019,4.83705 -5.19365,-1.42954 z m -2.22542,-18.919482 -0.53073,-3.713155 -3.47908,-1.684258 3.50524,-1.63323 0.58926,-3.704971 2.69709,2.703764 3.84326,-0.605542 -1.83835,3.304247 1.78601,3.330728 -3.83326,-0.661628 z m -0.3709,-16.420671 -3.61149,-4.364628 -5.78321,0.388925 3.19701,-4.65445 -2.17144,-5.173371 5.58736,1.488019 4.44119,-3.586244 0.25615,5.574098 4.91625,2.956949 -5.42903,1.956962 z m -25.22147,-51.40384 1.28521,6.791341 6.54151,2.831164 -6.3139,3.275028 -0.77626,6.862519 -5.1874,-4.767265 -7.021256,1.410107 3.1079,-6.221359 -3.563121,-5.991024 7.108197,0.922253 z m 21.14153,17.848556 -0.14044,5.618062 4.72903,3.296314 -5.59505,1.607521 -1.79598,5.347253 -3.31748,-4.624559 -5.83902,0.0085 3.54473,-4.465656 -1.81273,-5.34202 5.50825,1.864633 z m -15.94887,58.186291 -4.38024,-4.792528 -6.58529,0.755841 3.38229,-5.490345 -2.78187,-5.79415 6.47062,1.399307 4.866,-4.33682 0.61676,6.355165 5.78923,3.113846 -6.08943,2.528401 z m -10.75621,-21.418267 -2.507137,-4.889185 -5.606128,-0.784016 4.056632,-3.805701 -0.957641,-5.373735 5.014274,2.537132 5.01427,-2.537132 -0.95763,5.373735 4.05662,3.805698 -5.60613,0.784019 z m -0.37092,-17.491583 -2.854156,-1.816502 -3.172863,1.233067 0.913038,-3.173831 -2.198957,-2.52318 3.418453,-0.145037 1.813832,-2.792478 1.19968,3.084197 3.319963,0.797333 -2.67701,2.051171 z m -7.788975,-14.278845 -5.834479,-0.665229 -3.877044,4.248632 -1.145589,-5.546045 -5.396473,-2.23588 5.126467,-2.762414 0.541842,-5.630482 4.313921,3.838779 5.731346,-1.243949 -2.460317,5.134912 z m -5.934461,-14.635813 -7.156843,-0.565822 -4.541624,5.353399 -1.652457,-6.725724 -6.693543,-2.502797 6.135569,-3.590909 0.404789,-6.900212 5.444444,4.506423 6.943716,-1.761768 -2.770717,6.37603 z m -26.33418,-18.5625 -4.093242,3.266001 0.474939,5.096798 -4.492268,-2.737421 -4.889772,2.009727 1.316869,-4.957821 -3.496986,-3.8547195 5.306137,-0.326681 2.728517,-4.3920727 1.962503,4.7559197 z m 1.483618,17.134612 1.081485,3.715906 3.793659,1.24917 -3.337775,2.138193 -0.06209,3.858469 -3.144342,-2.394429 -3.832037,1.135494 1.394466,-3.618032 -2.306236,-3.156693 4.006171,0.158361 z m 11.498021,21.418267 2.068254,4.568949 5.083221,0.950431 -3.875804,3.305019 0.631606,4.946528 -4.463634,-2.526337 -4.692866,2.106692 1.117128,-4.866383 -3.531957,-3.644519 5.154057,-0.481253 z m 9.643499,17.491583 0.966763,4.563448 4.454059,1.820609 -4.210749,2.295091 -0.422705,4.639535 -3.569145,-3.145005 -4.715305,1.046782 2.004895,-4.23881 -2.491514,-3.992589 4.808239,0.525275 z m 10.756216,20.347355 -3.754793,1.78349 -0.602111,3.988003 -2.922696,-2.885746 -4.126918,0.681233 1.948467,-3.56698 -1.948467,-3.56698 4.126918,0.68123 2.922696,-2.885747 0.602111,3.988007 z m -33.752255,24.987997 2.768021,-2.63654 -0.687448,-3.68927 3.460725,1.71893 3.433215,-1.76929 -0.629175,3.69888 2.809293,2.59579 -3.849578,0.56711 -1.696977,3.37358 -1.749995,-3.34839 z m 21.88333,-12.137039 -6.390944,0.392136 -3.28748,5.289253 -2.362411,-5.728655 -6.242599,-1.374666 4.930893,-3.932634 -0.570655,-6.138839 5.409869,3.298148 5.889914,-2.419345 -1.587411,5.971003 z m -15.94887,-26.41586 -1.308068,-2.55088 -2.924938,-0.409053 2.116503,-1.985582 -0.499637,-2.803689 2.61614,1.323724 2.616144,-1.323724 -0.499637,2.803689 2.116503,1.985582 -2.924938,0.409053 z m -7.418073,-14.278845 -4.311257,2.840855 -0.01253,5.028623 -4.139518,-3.068352 -4.973045,1.542444 1.75289,-4.7372 -3.060962,-4.07534 5.222864,0.140602 3.081267,-4.061145 1.475014,4.824098 z m -36.401514,2.543022 -6.892475,-0.978884 -4.66117,5.519596 -1.2597148,-7.315601 -6.347026,-3.037101 6.1139293,-3.542407 0.7384935,-7.396631 5.038329,5.126274 6.80344,-1.534267 -3.00007,6.710618 z m 29.725243,-20.034605 -4.193675,1.463254 -1.125017,4.154419 -2.741871,-3.386429 -4.452948,0.254024 2.499103,-3.556182 -1.627055,-3.997423 4.286402,1.188585 3.447373,-2.724565 0.150037,4.290769 z m -17.061584,-2.141828 -3.089322,0.938699 -0.947927,2.981476 -1.882253,-2.537677 -3.239151,0.05366 1.926027,-2.50707 -1.053979,-2.948313 3.072604,0.988224 2.587754,-1.875816 -0.02705,3.117826 z M 29.651425,17.134609 22.606448,16.251305 17.856497,21.336028 16.55234,14.614588 10.05992,11.838077 16.298884,8.5673027 17.0363,1.7666036 22.196349,6.4665931 29.144516,5.0400392 26.094638,11.215568 Z M 52.54605,81.28693 c -0.877664,1.270572 -0.298635,3.669996 -2.501353,3.985869 -3.419695,0.707522 -0.724325,1.479902 0.918492,2.527461 1.244403,0.863005 0.338145,2.909996 1.322794,3.771204 1.391235,-1.095025 2.724436,-2.992016 4.789877,-1.899893 1.836906,0.839623 1.848603,-0.394729 0.919292,-1.582666 -2.455981,-1.531774 2.292426,-4.652717 0.544671,-4.93031 -1.912058,0.522828 -3.986619,0.40217 -5.142576,-1.383617 -0.248844,-0.17494 -0.50163,-0.521594 -0.851197,-0.488048 z M 30.539569,65.45261 c 0.370924,2.710495 -1.89298,3.451588 -4.106474,4.23036 -3.438005,0.804804 1.352442,1.791255 2.486666,2.820519 1.903422,1.241957 0.669278,4.078372 1.591555,5.664128 1.640111,-0.883653 2.720242,-3.009765 4.36882,-3.50094 1.567741,0.23318 3.374973,0.994735 4.855966,0.814594 -0.325705,-1.727682 -2.048487,-3.325823 -1.992908,-4.938967 0.70631,-1.389573 2.101201,-2.904259 2.355119,-4.309514 -1.803892,-0.145458 -3.901168,0.884936 -5.484851,0.358433 -1.259245,-0.722587 -3.74809,-5.475761 -3.851799,-2.410544 -0.07403,0.423976 -0.148064,0.847955 -0.222094,1.271931 z m -15.20489,9.87597 c -1.195911,1.28488 -1.882365,3.423904 -4.168322,3.068418 -4.0022788,-0.319217 -0.379969,1.604129 0.957686,2.856468 0.131585,0.841412 -1.767511,4.306628 0.3388,2.961399 1.849827,-1.044538 3.674254,-1.569802 5.559441,-0.319675 1.696639,1.092428 1.446569,-0.687562 0.979577,-1.656527 -0.585851,-1.768554 1.900023,-2.514621 2.806975,-3.65551 -2.069808,-0.279778 -4.916294,0.041 -5.643969,-2.413738 -0.245992,-0.255863 -0.436397,-0.780084 -0.830188,-0.840835 z m 0,0 c -1.195911,1.28488 -1.882365,3.423904 -4.168322,3.068418 -4.0022788,-0.319217 -0.379969,1.604129 0.957686,2.856468 0.131585,0.841412 -1.767511,4.306628 0.3388,2.961399 1.849827,-1.044538 3.674254,-1.569802 5.559441,-0.319675 1.696639,1.092428 1.446569,-0.687562 0.979577,-1.656527 -0.585851,-1.768554 1.900023,-2.514621 2.806975,-3.65551 -2.069808,-0.279778 -4.916294,0.041 -5.643969,-2.413738 -0.245992,-0.255863 -0.436397,-0.780084 -0.830188,-0.840835 z" />
  </g>
</svg>
