<?xml version="1.0" encoding="UTF-8" standalone="no"?>
<!-- Created with Inkscape (http://www.inkscape.org/) -->

<svg
   width="30"
   height="30"
   viewBox="0 0 10.583333 10.583333"
   version="1.1"
   id="svg5"
   inkscape:version="1.1.1 (3bf5ae0d25, 2021-09-20)"
   sodipodi:docname="percentage_simbol.svg"
   xmlns:inkscape="http://www.inkscape.org/namespaces/inkscape"
   xmlns:sodipodi="http://sodipodi.sourceforge.net/DTD/sodipodi-0.dtd"
   xmlns="http://www.w3.org/2000/svg"
   xmlns:svg="http://www.w3.org/2000/svg">
  <sodipodi:namedview
     id="namedview7"
     pagecolor="#ffffff"
     bordercolor="#666666"
     borderopacity="1.0"
     inkscape:pageshadow="2"
     inkscape:pageopacity="0.0"
     inkscape:pagecheckerboard="0"
     inkscape:document-units="mm"
     showgrid="false"
     width="30px"
     inkscape:zoom="11.859035"
     inkscape:cx="17.834504"
     inkscape:cy="6.7880735"
     inkscape:window-width="1920"
     inkscape:window-height="1017"
     inkscape:window-x="-8"
     inkscape:window-y="1072"
     inkscape:window-maximized="1"
     inkscape:current-layer="layer1"
     units="px" />
  <defs
     id="defs2">
    <marker
       style="overflow:visible"
       id="Arrow1Lstart"
       refX="0"
       refY="0"
       orient="auto"
       inkscape:stockid="Arrow1Lstart"
       inkscape:isstock="true">
      <path
         transform="matrix(0.8,0,0,0.8,10,0)"
         style="fill:context-stroke;fill-rule:evenodd;stroke:context-stroke;stroke-width:1pt"
         d="M 0,0 5,-5 -12.5,0 5,5 Z"
         id="path32500" />
    </marker>
  </defs>
  <g
     inkscape:label="Layer 1"
     inkscape:groupmode="layer"
     id="layer1">
    <g
       aria-label="1"
       id="text17493"
       style="font-size:10.5833px;line-height:1.25;stroke-width:0.264583" />
    <g
       aria-label="x"
       transform="scale(0.99489272,1.0051335)"
       id="text25348"
       style="font-size:12.3199px;line-height:1.25;stroke-width:0.307999" />
    <g
       aria-label="x"
       id="text35480"
       style="font-size:10.5833px;line-height:1.25;stroke-width:0.264583" />
    <g
       aria-label="2"
       transform="scale(0.99313137,1.0069161)"
       id="text39318"
       style="font-size:6.09218px;line-height:1.25;stroke-width:0.152305" />
    <g
       aria-label="+"
       id="text66515"
       style="font-size:10.5833px;line-height:1.25;stroke-width:0.264583" />
    <g
       aria-label="-"
       transform="scale(1.290491,0.77489884)"
       id="text68801"
       style="font-size:13.6577px;line-height:1.25;stroke-width:0.341442" />
    <g
       aria-label="0"
       transform="scale(1.2078928,0.82788801)"
       id="text2194"
       style="font-size:5.36549px;line-height:1.25;stroke-width:0.134137" />
    <g
       aria-label="|"
       transform="matrix(0.64631069,0.66000213,-0.77345179,0.75740689,0,0)"
       id="text4166"
       style="font-size:10.3484px;line-height:1.25;stroke-width:0.25871" />
    <g
       aria-label="0"
       transform="scale(1.2078928,0.82788803)"
       id="text2194-1"
       style="font-size:5.36549px;line-height:1.25;stroke-width:0.134137">
      <path
         id="path7365"
         d="m 6.6441826,8.117991 q 0,1.0505671 -0.3301033,1.5431023 -0.3274836,0.4899157 -1.0191287,0.4899157 -0.7021247,0 -1.0269884,-0.4977753 -0.3222437,-0.4977749 -0.3222437,-1.530003 0,-1.0400876 0.3274835,-1.5352427 0.3274835,-0.497775 1.0217486,-0.497775 0.7021246,0 1.0243684,0.5056346 0.3248636,0.5030147 0.3248636,1.5221434 z M 5.9551573,9.3074111 q 0.091695,-0.2122093 0.1231338,-0.4977749 0.034058,-0.2881855 0.034058,-0.6916452 0,-0.39822 -0.034058,-0.6916452 Q 6.0468527,7.1329206 5.9525375,6.9285708 5.8608421,6.726841 5.7010301,6.6246661 5.543838,6.5224913 5.2949506,6.5224913 q -0.2462677,0 -0.4086995,0.1021748 -0.1598119,0.1021749 -0.2541272,0.3091445 -0.089075,0.1938702 -0.1231338,0.5056345 -0.031438,0.3117643 -0.031438,0.6837856 0,0.4086994 0.028818,0.6837856 0.028819,0.2750862 0.1231338,0.4925352 0.086456,0.2043497 0.2436478,0.3117643 0.1598119,0.1074146 0.4217988,0.1074146 0.2462676,0 0.4086994,-0.1021748 Q 5.8660817,9.5143807 5.9551573,9.3074111 Z M 0.95536442,10.05223 0.48492309,9.3513139 6.7877745,0.3461865 7.2582159,1.047103 Z M 3.1351665,2.7524036 q 0,1.0505672 -0.3301033,1.5431024 -0.3274836,0.4899153 -1.0191288,0.4899153 -0.7021246,0 -1.02698826,-0.4977749 -0.32224379,-0.497775 -0.32224379,-1.530003 0,-1.0400876 0.32748352,-1.5352427 0.32748353,-0.49777492 1.02174853,-0.49777492 0.7021247,0 1.0243685,0.50563462 0.3248636,0.5030146 0.3248636,1.5221432 z M 2.4461412,3.9418238 Q 2.5378362,3.7296145 2.569275,3.4440488 2.603333,3.1558633 2.603333,2.7524036 q 0,-0.3982199 -0.034058,-0.691645 Q 2.5378366,1.7673333 2.4435214,1.5629836 2.351826,1.3612538 2.192014,1.2590789 2.0348219,1.156904 1.7859344,1.156904 1.5396668,1.156904 1.377235,1.2590789 1.2174231,1.3612538 1.1231078,1.5682233 1.0340318,1.7620936 0.999974,2.0738578 0.9685356,2.3856221 0.9685356,2.7576434 q 0,0.4086994 0.0288185,0.6837856 0.0288186,0.2750861 0.1231338,0.4925352 0.086456,0.2043497 0.2436478,0.3117643 0.1598119,0.1074146 0.4217987,0.1074146 0.2462677,0 0.4086995,-0.1021749 0.1624318,-0.1021748 0.2515073,-0.3091444 z"
         style="fill:#ffffff" />
    </g>
  </g>
</svg>
