<?xml version="1.0" encoding="UTF-8" standalone="no"?>
<!-- Created with Inkscape (http://www.inkscape.org/) -->

<svg
   width="30px"
   height="30px"
   viewBox="0 0 20 20"
   version="1.1"
   id="svg5"
   inkscape:version="1.1.1 (3bf5ae0d25, 2021-09-20)"
   sodipodi:docname="fraction.svg"
   xmlns:inkscape="http://www.inkscape.org/namespaces/inkscape"
   xmlns:sodipodi="http://sodipodi.sourceforge.net/DTD/sodipodi-0.dtd"
   xmlns="http://www.w3.org/2000/svg"
   xmlns:svg="http://www.w3.org/2000/svg">
  <sodipodi:namedview
     id="namedview7"
     pagecolor="#ffffff"
     bordercolor="#666666"
     borderopacity="1.0"
     inkscape:pageshadow="2"
     inkscape:pageopacity="0.0"
     inkscape:pagecheckerboard="0"
     inkscape:document-units="mm"
     showgrid="false"
     width="100mm"
     inkscape:zoom="16.771208"
     inkscape:cx="24.118716"
     inkscape:cy="17.321352"
     inkscape:window-width="1920"
     inkscape:window-height="1017"
     inkscape:window-x="-8"
     inkscape:window-y="1072"
     inkscape:window-maximized="1"
     inkscape:current-layer="layer1" />
  <defs
     id="defs2">
    <marker
       style="overflow:visible"
       id="Arrow1Lstart"
       refX="0"
       refY="0"
       orient="auto"
       inkscape:stockid="Arrow1Lstart"
       inkscape:isstock="true">
      <path
         transform="matrix(0.8,0,0,0.8,10,0)"
         style="fill:context-stroke;fill-rule:evenodd;stroke:context-stroke;stroke-width:1pt"
         d="M 0,0 5,-5 -12.5,0 5,5 Z"
         id="path32500" />
    </marker>
  </defs>
  <g
     inkscape:label="Layer 1"
     inkscape:groupmode="layer"
     id="layer1">
    <g
       aria-label="1"
       id="text17493"
       style="font-size:10.5833px;line-height:1.25;stroke-width:0.264583" />
    <g
       aria-label="x"
       transform="scale(0.99489272,1.0051335)"
       id="text25348"
       style="font-size:12.3199px;line-height:1.25;stroke-width:0.307999" />
    <g
       aria-label="1"
       transform="scale(1.2052899,0.8296759)"
       id="text11961"
       style="font-size:14.0798px;line-height:1.25;stroke-width:0.351996" />
    <g
       aria-label="|"
       transform="rotate(49.548417)"
       id="text18481"
       style="font-size:26.6667px;line-height:1.25;stroke-width:0.666667" />
    <g
       aria-label="x"
       transform="scale(0.94408622,1.0592253)"
       id="text25841"
       style="font-size:15.6115px;line-height:1.25;stroke-width:0.390287">
      <path
         id="path27189"
         d="m 20.183109,18.801558 h -1.806604 l -2.416429,-3.270182 -2.431674,3.270182 h -1.669394 l 3.323542,-4.245901 -3.29305,-4.26877 h 1.806604 l 2.401183,3.216823 2.408805,-3.216823 h 1.677017 l -3.346411,4.192542 z M 0.92743071,17.114407 -0.62957891,15.486765 19.814866,-0.04977556 21.371876,1.5778667 Z M 8.0031989,8.3312278 H 0.92893239 V 7.5127064 H 3.6498042 V 2.1384647 H 0.92893239 V 1.4061032 q 0.55295131,0 1.18489581,-0.05385 Q 2.7457725,1.2930179 3.0705217,1.1853177 3.474264,1.0506923 3.7024662,0.84606186 3.9394453,0.63604644 3.9745533,0.28602064 h 1.360436 V 7.5127064 h 2.6682096 z"
         style="fill:#ffffff" />
    </g>
  </g>
</svg>
