<?xml version="1.0" encoding="UTF-8" standalone="no"?>
<!-- Generator: Adobe Illustrator 18.0.0, SVG Export Plug-In . SVG Version: 6.00 Build 0)  -->

<svg
   version="1.1"
   id="Capa_1"
   x="0px"
   y="0px"
   viewBox="0 0 219.15 219.15"
   style="enable-background:new 0 0 219.15 219.15;"
   xml:space="preserve"
   sodipodi:docname="history-icon.svg"
   inkscape:version="1.1.1 (3bf5ae0d25, 2021-09-20)"
   xmlns:inkscape="http://www.inkscape.org/namespaces/inkscape"
   xmlns:sodipodi="http://sodipodi.sourceforge.net/DTD/sodipodi-0.dtd"
   xmlns="http://www.w3.org/2000/svg"
   xmlns:svg="http://www.w3.org/2000/svg"><defs
   id="defs41" /><sodipodi:namedview
   id="namedview39"
   pagecolor="#ffffff"
   bordercolor="#666666"
   borderopacity="1.0"
   inkscape:pageshadow="2"
   inkscape:pageopacity="0.0"
   inkscape:pagecheckerboard="0"
   showgrid="false"
   inkscape:zoom="1.8982433"
   inkscape:cx="-12.90667"
   inkscape:cy="80.86424"
   inkscape:window-width="1920"
   inkscape:window-height="1017"
   inkscape:window-x="-8"
   inkscape:window-y="1072"
   inkscape:window-maximized="1"
   inkscape:current-layer="Capa_1" />
<g
   id="g6"
   style="fill:#ffffff">
	<path
   d="M109.575,0C49.156,0,0.001,49.155,0.001,109.574c0,60.42,49.154,109.576,109.573,109.576   c60.42,0,109.574-49.156,109.574-109.576C219.149,49.155,169.995,0,109.575,0z M109.575,204.15   c-52.148,0-94.573-42.427-94.573-94.576C15.001,57.426,57.427,15,109.575,15c52.148,0,94.574,42.426,94.574,94.574   C204.149,161.724,161.723,204.15,109.575,204.15z"
   id="path2"
   style="fill:#ffffff" />
	<path
   d="M166.112,108.111h-52.051V51.249c0-4.142-3.357-7.5-7.5-7.5c-4.142,0-7.5,3.358-7.5,7.5v64.362c0,4.142,3.358,7.5,7.5,7.5   h59.551c4.143,0,7.5-3.358,7.5-7.5C173.612,111.469,170.254,108.111,166.112,108.111z"
   id="path4"
   style="fill:#ffffff" />
</g>
<g
   id="g8">
</g>
<g
   id="g10">
</g>
<g
   id="g12">
</g>
<g
   id="g14">
</g>
<g
   id="g16">
</g>
<g
   id="g18">
</g>
<g
   id="g20">
</g>
<g
   id="g22">
</g>
<g
   id="g24">
</g>
<g
   id="g26">
</g>
<g
   id="g28">
</g>
<g
   id="g30">
</g>
<g
   id="g32">
</g>
<g
   id="g34">
</g>
<g
   id="g36">
</g>
</svg>
