<?xml version="1.0" encoding="UTF-8" standalone="no"?>
<!-- Generator: Adobe Illustrator 24.2.0, SVG Export Plug-In . SVG Version: 6.00 Build 0)  -->

<svg
   version="1.1"
   id="Logo"
   x="0px"
   y="0px"
   viewBox="0 0 49.4893 40.201633"
   xml:space="preserve"
   sodipodi:docname="twitter_logo.svg"
   inkscape:version="1.1.1 (3bf5ae0d25, 2021-09-20)"
   width="49.4893"
   height="40.201633"
   xmlns:inkscape="http://www.inkscape.org/namespaces/inkscape"
   xmlns:sodipodi="http://sodipodi.sourceforge.net/DTD/sodipodi-0.dtd"
   xmlns="http://www.w3.org/2000/svg"
   xmlns:svg="http://www.w3.org/2000/svg"><defs
   id="defs9" /><sodipodi:namedview
   id="namedview7"
   pagecolor="#ffffff"
   bordercolor="#666666"
   borderopacity="1.0"
   inkscape:pageshadow="2"
   inkscape:pageopacity="0.0"
   inkscape:pagecheckerboard="0"
   showgrid="false"
   inkscape:zoom="4.0784314"
   inkscape:cx="74.415865"
   inkscape:cy="80.545673"
   inkscape:window-width="1920"
   inkscape:window-height="1017"
   inkscape:window-x="-8"
   inkscape:window-y="1072"
   inkscape:window-maximized="1"
   inkscape:current-layer="Logo_1_"
   fit-margin-top="0"
   fit-margin-left="0"
   fit-margin-right="0"
   fit-margin-bottom="0" />
<style
   type="text/css"
   id="style2">
	.st0{fill:#FFFFFF;}
</style>
<g
   id="Logo_1_"
   style="stroke:#000000"
   transform="translate(-0.58323558,-1.0000067)">
	<path
   id="white_background"
   class="st0"
   d="m 44.765362,11.057786 c 0.02995,0.433998 0.02995,0.867997 0.02995,1.305996 0,13.345967 -10.145769,28.73793 -28.697747,28.73793 v -0.008 c -5.480314,0.008 -10.8467864,-1.563997 -15.46031533,-4.52799 0.79688223,0.096 1.59775883,0.144 2.40063283,0.146001 4.5416297,0.004 8.9534415,-1.521998 12.5264295,-4.33199 -4.315946,-0.082 -8.1006374,-2.899993 -9.4227829,-7.013983 1.5118794,0.291999 3.0696944,0.231999 4.5536129,-0.173999 -4.7053959,-0.952001 -8.0906477,-5.09199 -8.0906477,-9.899978 0,-0.044 0,-0.086 0,-0.128 C 4.0065278,15.945771 5.576326,16.37977 7.1820736,16.42777 2.7502938,13.461779 1.38421,7.5577942 4.0604562,2.9418056 9.1812735,9.25179 16.736676,13.087781 24.847299,13.493779 c -0.81286,-3.5079908 0.297583,-7.1839817 2.917908,-9.6499757 4.062302,-3.82399039 10.45134,-3.62799088 14.269984,0.4379991 2.258832,-0.445999 4.423795,-1.2759969 6.405016,-2.451994 -0.752943,2.3379943 -2.328733,4.3239893 -4.433781,5.5859862 1.999197,-0.2359995 3.952456,-0.7719981 5.791876,-1.589996 -1.354101,2.0319949 -3.059708,3.8019905 -5.03294,5.2319874 z"
   style="stroke:#000000;stroke-width:2;stroke-miterlimit:4;stroke-dasharray:none;fill:none" />
</g>
</svg>
